<svg id="Layer_1" data-name="Layer 1" xmlns="http://www.w3.org/2000/svg" viewBox="0 0 1000 286.72"><defs><style>.cls-1{fill:#fff;}</style></defs><title>AAVE</title><path class="cls-1" d="M616.36,263.89,519.7,29.48a18.68,18.68,0,0,1-1.18-6.65q0-8.21,4.69-13.11t12.92-4.89a16.44,16.44,0,0,1,10,3.32A21.05,21.05,0,0,1,553,17l92,229.33L736.89,17a20.93,20.93,0,0,1,6.85-8.81,16.4,16.4,0,0,1,10-3.32q8.22,0,12.92,4.89t4.69,13.11a18.85,18.85,0,0,1-1.17,6.65L673.49,263.89q-8.22,18-24.26,18h-8.61Q624.56,281.89,616.36,263.89Z"/><path class="cls-1" d="M812.29,274.85a17,17,0,0,1-5.08-12.52V24.78a17.67,17.67,0,0,1,5.08-12.72,16.7,16.7,0,0,1,12.53-5.28H981.75a16.24,16.24,0,0,1,11.93,4.89,16.23,16.23,0,0,1,4.89,11.94,15.59,15.59,0,0,1-4.89,11.74A16.59,16.59,0,0,1,981.75,40H842.82v86.49H967.66a16.7,16.7,0,0,1,16.82,16.83,15.59,15.59,0,0,1-4.89,11.74,16.58,16.58,0,0,1-11.93,4.7H842.82v86.88H981.75a16.7,16.7,0,0,1,16.82,16.83,15.59,15.59,0,0,1-4.89,11.74,16.59,16.59,0,0,1-11.93,4.7H824.82A17,17,0,0,1,812.29,274.85Z"/><path class="cls-1" d="M541.75,257.24,445.09,22.82q-8.21-18-24.26-18h-8.61q-16,0-24.26,18l-42.06,102H314.22a17.36,17.36,0,0,0-17.36,17.36v.36a17.36,17.36,0,0,0,17.36,17.36h17.21l-40.14,97.34a18.76,18.76,0,0,0-1.17,6.65q0,8.21,4.7,13.11t12.91,4.89a16.41,16.41,0,0,0,10-3.33,21,21,0,0,0,6.85-8.81L368.61,159.9h30.5a17.36,17.36,0,0,0,17.36-17.36v-.36a17.36,17.36,0,0,0-17.36-17.36H382.68l33.84-84.39,92,229.33a21.05,21.05,0,0,0,6.85,8.81,16.44,16.44,0,0,0,10,3.33q8.22,0,12.92-4.89t4.69-13.11A18.77,18.77,0,0,0,541.75,257.24Z"/><path class="cls-1" d="M253.06,257.24,156.4,22.82q-8.21-18-24.26-18h-8.61q-16,0-24.26,18l-42.06,102H25.58A17.36,17.36,0,0,0,8.21,142.18v.36A17.36,17.36,0,0,0,25.58,159.9H42.74L2.6,257.24a18.77,18.77,0,0,0-1.17,6.65q0,8.21,4.7,13.11T19,281.89a16.41,16.41,0,0,0,10-3.33,21,21,0,0,0,6.85-8.81L79.92,159.9h30.55a17.36,17.36,0,0,0,17.36-17.36v-.36a17.36,17.36,0,0,0-17.36-17.36H94l33.84-84.39,92,229.33a21.05,21.05,0,0,0,6.85,8.81,16.44,16.44,0,0,0,10,3.33q8.22,0,12.92-4.89t4.69-13.11A18.77,18.77,0,0,0,253.06,257.24Z"/></svg>